PathFileType	4	(X/Y/Z)	Patient4_TMGait_0pt5_02_left_18.trc.trc
DataRate	CameraRate	NumFrames	NumMarkers	Units	OrigDataRate	OrigDataStartFrame	OrigNumFrames
78.651685393258	78.651685393258	7	33	mm	78.651685393258	53	       141
Frame#	Time	Sacral			L.Shoulder			Chest			R.Shoulder			Neck			R.ASIS			L.ASIS			R.Thigh.Superior			R.Thigh.Lateral			R.Thigh.Inferior			R.Patella			L.Thigh.Superior			L.Thigh.Lateral			L.Thigh.Inferior			L.Patella			L.Shank.Superior			L.Shank.Lateral			L.Shank.Inferior			R.Shank.Superior			R.Shank.Lateral			R.Shank.Inferior			R.Heel			R.Midfoot.Superior			R.Midfoot.Lateral			R.Toe			L.Heel			L.Midfoot.Lateral			L.Midfoot.Superior			L.Toe			L.Elbow			L.Wrist			R.Elbow			R.Wrist			
		X1	Y1	Z1	X2	Y2	Z2	X3	Y3	Z3	X4	Y4	Z4	X5	Y5	Z5	X6	Y6	Z6	X7	Y7	Z7	X8	Y8	Z8	X9	Y9	Z9	X10	Y10	Z10	X11	Y11	Z11	X12	Y12	Z12	X13	Y13	Z13	X14	Y14	Z14	X15	Y15	Z15	X16	Y16	Z16	X17	Y17	Z17	X18	Y18	Z18	X19	Y19	Z19	X20	Y20	Z20	X21	Y21	Z21	X22	Y22	Z22	X23	Y23	Z23	X24	Y24	Z24	X25	Y25	Z25	X26	Y26	Z26	X27	Y27	Z27	X28	Y28	Z28	X29	Y29	Z29	X30	Y30	Z30	X31	Y31	Z31	X32	Y32	Z32	X33	Y33	Z33	

53	23.411142857143	646.002085521991	1019.197255693710	460.841437365954	857.065789090206	1433.386164910155	285.341175831328	943.503301640649	1362.180523985733	455.774164107871	849.557243119617	1442.639080504810	621.889606112910	845.960275175804	1497.305543774778	435.713538968901	861.242940245337	944.537911837365	592.124596764978	870.389497419920	961.877103911538	317.885772368173	930.750368127626	760.984578910630	569.311177434199	870.517229321646	644.698096474013	637.385697951966	962.366480866299	596.648473966873	565.651596241454	968.562486556745	483.541400105461	587.871218637917	908.054817655664	750.219449159471	347.516231875701	818.098076736863	638.077285840974	288.426516078389	898.181708722331	558.430730900108	355.390449952544	896.010924449597	488.516600257357	366.084505340968	868.994292801614	418.207630884827	357.996807608910	780.815649302925	304.098296602070	304.655397125364	827.200703878960	193.571598489976	379.956369054984	890.653665495397	413.321550121526	587.148294451825	764.076617391626	374.573318476235	634.534649688719	753.403408611415	266.290416093632	584.444656758426	555.710055194919	204.771250363852	533.088817525546	718.903409316002	152.124682502875	599.171602958696	605.910401010449	154.081596569348	618.882610260709	778.584013684501	42.754886514592	644.972516533562	694.925501468933	38.637530996241	419.753097635135	772.248001193115	35.395016022556	342.393633429002	854.553325569205	95.543704269366	371.698736855806	983.742873762541	43.303124442497	349.439401408868	861.599208137330	1080.041851760444	162.023640520330	1047.798143009788	896.573312257147	158.583256315363	769.349411246606	1102.919782398955	730.646758504802	830.488145935761	847.603558268396	738.907295979712	
54	23.423857142857	644.772018032369	1019.613991768256	460.121414493788	858.695688521712	1433.588957208347	285.902674156269	943.606876544903	1361.744829490094	456.766460006681	848.837531931372	1442.310531913859	622.388706204440	847.093394401495	1497.286902199370	436.358608966289	859.350881329607	945.048075659804	592.246181064793	869.518473328749	961.713763833294	318.100668613126	931.023269928322	763.520160926932	569.120023843394	873.081837850659	646.630571004081	637.558774767659	965.236611511828	599.836990557856	565.361978880874	973.657355742107	487.017660950613	587.753384532396	905.810387065177	749.585070225673	347.754164522546	815.282109787613	638.029199224723	288.496529845547	894.665518050615	557.856982735022	355.578027160896	891.969647419901	487.921897754647	366.294844954789	864.646279560699	417.860228342269	358.150263028731	775.950605234033	304.251070760261	304.627974231586	821.573671355570	193.437176806232	379.947192985339	897.144391151314	415.406342405922	587.290720934425	771.638609388591	373.781460018583	635.114757691773	763.124366046804	265.350948394358	584.971580848482	566.590849177576	199.431246321116	534.493331841090	731.405739720109	150.519324235415	599.921056067197	618.392430389418	149.629107915327	619.920726445105	793.641744887327	42.215857627463	644.647774217224	688.521450846020	38.758048898250	419.634469994413	765.886753765028	35.412817956182	342.329161662173	848.261314925884	95.501796221407	371.617844142285	977.406135855703	43.054966393813	349.368812824756	865.657559441831	1081.067407549603	160.960941511193	1058.463051996991	904.802086512451	159.267292523303	761.475487488029	1104.491594334346	730.809140168042	809.497427796942	846.730324355060	745.152678728131	
55	23.436571428571	643.508120389493	1019.987768151495	459.539521777018	860.503214259708	1433.624757877940	286.563899425024	943.788762569310	1361.165668059417	457.914340973658	848.169479904867	1441.958668712403	622.969044444325	848.281600542596	1497.163797643900	437.058424602294	857.365243836655	945.481896224030	592.548674954431	868.525852323785	961.423306918222	318.514890702392	931.021420892112	765.893136002873	569.068922126582	875.289979686193	648.458035376664	637.830994577469	967.624950315321	602.845954114242	565.140205548781	978.242285837159	490.508832683994	587.711241022272	903.588464301801	748.930306801604	348.179389623749	812.570342343816	637.932031073352	288.689560368586	891.266965870122	557.265859603463	355.899297428811	888.059807737689	487.297030522036	366.617212060255	860.407515002872	417.463997750420	358.400404808639	771.185901591667	304.382354301122	304.664474971859	815.980253578198	193.272632583372	379.997247269872	903.433088444196	417.368725789149	587.558383743397	779.333934060648	372.321660647206	635.959517821218	773.420120240738	263.757156339981	585.756293722318	578.388193439040	192.595244922280	536.398122698993	745.021543772873	148.136117177315	600.871751949893	632.103686661633	143.930531838344	621.372628311542	810.351816636423	41.286660538718	644.468256632565	682.121562797232	38.870919833527	419.525244254283	759.529085455500	35.427253613870	342.271687294534	841.974060792106	95.459563031812	371.552068941957	971.075673036778	42.798941836742	349.305426131376	869.492214905573	1081.968301728627	160.007664721704	1068.488094211677	913.029983360131	160.225700962358	753.456151566558	1106.344001456016	731.232992362039	789.229473293069	847.187326996671	751.317509814001	
56	23.449285714286	642.217083707113	1020.328049948002	459.087826642661	862.452949821745	1433.498951150592	287.330377987657	944.037134637411	1360.462319903171	459.217076147992	847.545403702268	1441.593963917057	623.633564598425	849.498562785009	1496.943596778126	437.818563358996	855.305665193116	945.838411428156	593.032017959856	867.437291326675	961.022254573655	319.126983086507	930.733502668483	768.073712305034	569.162487813764	877.084766114971	650.149713587016	638.208364301827	969.490220284940	605.628587646108	565.017938091750	982.258037568150	493.977756428655	587.771546061599	901.410361451726	748.252961793160	348.779867548355	809.948001771805	637.789450082916	289.007686680028	887.967934057197	556.654144440074	356.355504265362	884.259518467884	486.645295104557	367.061158062450	856.258534608680	417.020893051098	358.752519683471	766.508110593530	304.490784354363	304.768931327424	810.407856010830	193.078953499421	380.112241871122	909.463231672315	419.203916899789	587.967189910524	787.137970966450	370.249601992116	637.061511827255	784.264998041460	261.595272590315	586.802477991329	591.175339875776	184.404239142873	538.750925048753	759.707894179032	145.114343683286	602.025405992626	647.051030481846	137.168199954045	623.208306913194	828.599457779041	40.144573317464	644.499891097268	675.728347009969	38.974641876337	419.427185092498	753.173851132579	35.439626682194	342.221258544725	835.689635757331	95.417947344370	371.503722268262	964.749434998213	42.542387416217	349.250419882594	873.130238751102	1082.734092994709	159.183520785641	1077.845344707522	921.146189494585	161.451166447297	745.373466173063	1108.469843174208	731.913907655152	769.827206823109	848.770843698627	757.309603422704	
57	23.462000000000	640.908848294205	1020.649734759973	458.758107673926	864.503442964202	1433.229515766367	288.211027764919	944.337574045168	1359.662829069620	460.673727899421	846.956482087669	1441.230623770676	624.388439440132	850.719933658408	1496.641085789589	438.650659006945	853.192188314709	946.121528062082	593.697029867343	866.286677570751	960.533367668024	319.935497228636	930.146133267022	770.032854884717	569.413619894912	878.398273500144	651.676586567028	638.699937813367	970.781872943164	608.139097376540	565.028038640959	985.638273789008	497.387176777033	587.954534693441	899.286484655192	747.551709810945	349.549657792352	807.393746904698	637.609867736976	289.452508211488	884.737777477702	556.022319484830	356.950352400509	880.533917776331	485.973209574812	367.635517658794	852.169266254925	416.537702940908	359.210753353694	761.894934409560	304.578763985067	304.944380100332	804.841460633877	192.861065576115	380.295449644134	915.173250742352	420.913721033478	588.527599653276	795.027112680179	367.633240383930	638.413636124975	795.631483748476	258.971186401536	588.108395824040	605.032153487870	175.020375318198	541.498832351979	775.426519562901	141.628038627617	603.389819429115	663.249528901670	129.544088866202	625.393035014401	848.271820174304	39.010927073584	644.787883506156	669.343780103178	39.070694629740	419.341250216291	746.819655733526	35.452604569411	342.177907136691	829.406401923426	95.378319329441	371.474595279994	958.424823714525	42.292761270513	349.204889618278	876.599834518259	1083.367229558354	158.515677310519	1086.514219073758	929.038785248122	162.937440525383	737.325651380555	1110.852419189128	732.837917363659	751.412779040429	851.266788171750	763.045184038529	
58	23.474714285714	639.597376403202	1020.970448373721	458.544032954265	866.612246156740	1432.844457329185	289.217334747610	944.675044274838	1358.800237230596	462.283548846712	846.394608763020	1440.884339708059	625.242774785603	851.924979773421	1496.276384388404	439.571278558068	851.045410341442	946.338795528612	594.545196317772	865.113467748703	959.983955637457	320.938017985561	929.247506853560	771.741956175248	569.842827290104	879.158152036101	653.011157472470	639.318255354341	971.444823964261	610.332257336950	565.202401864751	988.312437694448	500.699353428630	588.272670025130	897.215186059781	746.826510600994	350.489815405545	804.882146498971	637.405807765330	290.023757247590	881.536116405667	555.374136232243	357.687988619227	876.838304283379	485.289815427742	368.345106875106	848.101955059097	416.025257418500	359.776084375172	757.316946702968	304.651771651624	305.191842047366	799.265600803044	192.627071882591	380.546552495373	920.498681220230	422.505115137935	589.244508942211	802.976801328101	364.550319033870	640.008709596215	807.485236185926	256.006757710989	589.666047013571	620.032436892505	164.629263302004	544.588451075340	792.134910886298	137.874180227873	604.973713645341	680.710778199267	121.274644413089	627.887637035374	869.249578465316	38.130267880398	645.352803224905	662.968895442313	39.163284095024	419.267594047708	740.464939929401	35.469958469712	342.141650277104	823.122991724323	95.342400801281	371.465707050940	952.098784506171	42.056872116412	349.169640956233	879.925495303857	1083.881161401306	158.036561614445	1094.481073542454	936.597896699245	164.679544404633	729.417698655809	1113.462970924996	733.980269921423	734.089813092271	854.461019195353	768.451879395935	
59	23.487428571429	638.300953156105	1021.306975403746	458.443113840232	868.739926731940	1432.377696278802	290.362437274328	945.035481934582	1357.907888170097	464.046087144597	845.854209999711	1440.569316967532	626.208119670030	853.097173965000	1495.871933864279	440.600509205245	848.887448993200	946.499544346947	595.578226938829	863.959394963570	959.403315969907	322.130243606746	928.030683234739	773.172440384479	570.475748243585	879.295241533270	654.127048937336	640.078455042618	971.426080406829	612.164065029939	565.569879772250	990.211512432750	503.876259171141	588.730674883717	895.183678412329	746.078361080736	351.607505651985	802.386674000717	637.192245629203	290.718535988668	878.317388555119	554.715375439282	358.571115778091	873.122851446451	484.605462797261	369.188742838992	844.015271683416	415.496852937977	360.445301097228	752.740470213471	304.717027728407	305.510099847671	793.666344404068	192.386736047201	380.861461157229	925.374706277176	423.987904734195	590.118026040431	810.957322881697	361.086279224492	641.837694740892	819.777342162549	252.834807234249	591.460709936593	636.225792109686	153.442200396527	547.963756150202	809.772771940995	134.059138401972	606.781413246110	699.424896624290	112.585905449296	630.647132162660	891.392349175475	37.746563443681	646.190698339038	656.603599528400	39.258183852039	419.205872461457	734.108062385066	35.496000020079	342.112563907046	816.838033663434	95.312140723796	371.477313411746	945.767857116673	41.840394634532	349.145109201718	883.124026780816	1084.296720547117	157.781036257032	1101.738713698037	943.718708855163	166.673697391473	721.752870902920	1116.259398245079	735.307220681009	717.945356123068	858.146663716168	773.471249388567	
